<svg viewBox="0 0 218 54" fill="none" xmlns="http://www.w3.org/2000/svg"><path d="m8.19 45.832.003.003c5.174 5.108 11.48 7.665 18.89 7.665s13.694-2.557 18.82-7.666c5.173-5.157 7.763-11.445 7.763-18.834 0-7.388-2.59-13.653-7.763-18.762C40.777 3.081 34.493.5 27.083.5 19.672.5 13.365 3.082 8.192 8.238 3.066 13.348.5 19.612.5 27s2.565 13.675 7.69 18.832zM39.374 14.53l.005.005c3.347 3.29 5.024 7.431 5.024 12.464s-1.678 9.2-5.026 12.538c-3.303 3.293-7.39 4.94-12.294 4.94-4.903 0-9.014-1.647-12.365-4.94-3.3-3.337-4.955-7.504-4.955-12.538 0-5.035 1.655-9.178 4.955-12.467 3.352-3.341 7.463-5.011 12.365-5.011s8.988 1.67 12.291 5.009zM64.785 43.4l-.4.233.203.416c1.525 3.138 3.681 5.51 6.472 7.093 2.787 1.58 6.176 2.357 10.145 2.357 5.126 0 9.391-1.414 12.754-4.273l.004-.003c3.389-2.931 5.059-7.069 5.059-12.34V1.431h-9.264v35.453c0 2.47-.752 4.328-2.206 5.646-1.41 1.274-3.477 1.948-6.275 1.948-2.163 0-3.945-.429-5.372-1.258-1.422-.826-2.524-2.068-3.3-3.752l-.23-.5-.476.278-7.114 4.154zm48.46 0-.4.233.202.416c1.525 3.138 3.682 5.51 6.473 7.093 2.787 1.58 6.176 2.357 10.144 2.357 5.127 0 9.392-1.414 12.755-4.273l.003-.003c3.389-2.931 5.059-7.069 5.059-12.34V1.431h-9.263v35.453c0 2.47-.752 4.328-2.206 5.646-1.411 1.274-3.477 1.948-6.276 1.948-2.162 0-3.944-.429-5.371-1.258-1.423-.826-2.524-2.068-3.3-3.752l-.231-.5-.475.278-7.114 4.154zm58.779 2.43.003.004c5.174 5.108 11.48 7.665 18.89 7.665s13.693-2.557 18.819-7.666C214.91 40.677 217.5 34.389 217.5 27c0-7.388-2.59-13.653-7.764-18.762C204.611 3.081 198.327.5 190.917.5c-7.411 0-13.719 2.582-18.892 7.738-5.126 5.11-7.691 11.374-7.691 18.762s2.565 13.675 7.69 18.832zm31.184-31.3.005.005c3.346 3.29 5.024 7.431 5.024 12.464s-1.678 9.2-5.027 12.538c-3.302 3.293-7.389 4.94-12.293 4.94-4.904 0-9.015-1.647-12.366-4.94-3.3-3.337-4.954-7.504-4.954-12.538 0-5.035 1.655-9.178 4.955-12.467 3.352-3.341 7.463-5.011 12.365-5.011s8.988 1.67 12.291 5.009z" fill="#fff" stroke="#000"/><path d="m37.13 24.933-.005-.052a.707.707 0 0 0-.06-.187l-2.94-5.27s-.376-.518-.465-.518H21.127l-3.77 5.609-.044.052-.006.024a.966.966 0 0 0-.078.18l-.015.05a.901.901 0 0 0 .006.492l.017.056a.912.912 0 0 0 .087.182l9.113 12.85.019.03a.827.827 0 0 0 .174.181l.052.037a.901.901 0 0 0 .186.097l.051.02c.09.024.167.036.242.036a.877.877 0 0 0 .252-.04l.062-.024a.87.87 0 0 0 .18-.099l.041-.028a.76.76 0 0 0 .158-.162l9.124-12.864a.96.96 0 0 0 .153-.409l.007-.066.004-.053-.011-.124zm-4.892-.342 1.299-2.617 1.298 2.617h-2.597zm-.779 1.55h3.082l-5.136 7.243 2.054-7.243zm-.762-2.334-1.876-2.833h3.282l-1.406 2.832zm-6.009 2.334h4.948l-2.474 8.722-2.474-8.722zm.49-1.55 1.983-2.995 1.983 2.995H25.18zm-1.396-1.02-.86-2.598h2.58l-1.72 2.599zm1.137 9.813-5.136-7.243h3.082l2.054 7.243zm-3.484-11.391.86 2.598h-2.58l1.72-2.598zm179.364 2.94-.006-.052a.707.707 0 0 0-.059-.187l-2.941-5.27s-.375-.518-.464-.518h-12.534l-3.769 5.609-.045.052-.006.024a.96.96 0 0 0-.078.18l-.015.05a.9.9 0 0 0 .006.492l.018.056a.84.84 0 0 0 .087.182l9.113 12.85.018.03a.827.827 0 0 0 .174.181l.053.037a.897.897 0 0 0 .185.097l.052.02a.87.87 0 0 0 .242.036.881.881 0 0 0 .252-.04l.062-.024a.89.89 0 0 0 .18-.099l.041-.028a.756.756 0 0 0 .157-.162l9.124-12.864a.959.959 0 0 0 .154-.409l.007-.066.003-.053-.011-.124zm-4.893-.342 1.299-2.617 1.298 2.617h-2.597zm-.779 1.55h3.082l-5.136 7.243 2.054-7.243zm-.762-2.334-1.876-2.833h3.282l-1.406 2.832zm-6.008 2.334h4.948l-2.475 8.722-2.473-8.722zm.49-1.55 1.983-2.995 1.982 2.995h-3.965zm-1.396-1.02-.86-2.598h2.58l-1.72 2.599zm1.137 9.813-5.137-7.243h3.082l2.055 7.243zm-3.484-11.391.86 2.598h-2.58l1.72-2.598z" fill="#fff"/></svg>