<svg xmlns="http://www.w3.org/2000/svg" display="none">
  <symbol viewBox="0 0 477.867 477.867" id="time">
    <path d="M238.933 0C106.974 0 0 106.974 0 238.933s106.974 238.933 238.933 238.933 238.933-106.974 238.933-238.933C477.726 107.033 370.834.141 238.933 0zm0 443.733c-113.108 0-204.8-91.692-204.8-204.8s91.692-204.8 204.8-204.8 204.8 91.692 204.8 204.8c-.122 113.058-91.742 204.678-204.8 204.8z"></path>
    <path d="M238.933 85.333c-9.426 0-17.067 7.641-17.067 17.067v119.467H102.4c-9.426 0-17.067 7.641-17.067 17.067S92.974 256 102.4 256h136.533c9.426 0 17.067-7.641 17.067-17.067V102.4c0-9.426-7.641-17.067-17.067-17.067z"></path>
  </symbol>
  <symbol viewBox="0 0 511.998 511.998" id="archery">
    <path d="M458.854 113.935a15.408 15.408 0 0014.689 4.041 15.41 15.41 0 0010.986-10.554l26.004-87.624A15.413 15.413 0 00491.372.637L403.747 26.64a15.407 15.407 0 00-10.554 10.986 15.408 15.408 0 004.041 14.689l19.912 19.912-51.801 51.801c-23.69-21.975-49.208-40.777-76.057-55.992-31.126-17.638-63.35-30.093-95.778-37.019-33.009-7.051-65.459-8.206-96.448-3.431C64.846 32.55 34.853 43.834 7.916 61.125a15.423 15.423 0 00-6.999 11.32 15.406 15.406 0 004.425 12.549L204.86 284.511l-41.276 41.276-49.32 7.582a15.411 15.411 0 00-8.557 4.336L56.85 386.564a15.412 15.412 0 000 21.796l45.958 45.957a15.366 15.366 0 0010.898 4.515 15.36 15.36 0 0010.898-4.515l48.857-48.857a15.414 15.414 0 004.336-8.557l7.583-49.319 41.277-41.277 201.174 201.175a15.411 15.411 0 0023.869-2.572c17.291-26.937 28.576-56.929 33.54-89.146 4.774-30.988 3.62-63.438-3.431-96.449-6.926-32.428-19.381-64.651-37.019-95.778-15.583-27.5-34.918-53.61-57.583-77.782l51.734-51.734 19.913 19.914zM148.095 387.232l-34.39 34.39-24.16-24.159 34.39-34.391 28.549-4.389-4.389 28.549zm78.563-124.52L41.356 77.41c89.608-45.863 207.091-19.487 302.182 68.423l-116.88 116.879zM435.415 471.47l-186.96-186.96 116.942-116.942c89.188 95.392 116.158 213.753 70.018 303.902zm37.479-433.196l-10.551 35.554-25.004-25.003 35.555-10.551z"></path>
  </symbol>
  <symbol viewBox="0 0 74 74" id="diamond">
    <path d="M37 66.44a1 1 0 01-.771-.364l-34-41.24A1 1 0 013 23.2h68a1 1 0 01.771 1.636l-34 41.24a1 1 0 01-.771.364zM5.121 25.2L37 63.868 68.879 25.2z"></path>
    <path d="M37 66.44a1 1 0 01-.926-.622L19.219 24.579a1 1 0 01.926-1.378h33.71a1 1 0 01.926 1.378L37.926 65.818a1 1 0 01-.926.622zM21.634 25.2L37 62.8l15.366-37.6z"></path>
    <path d="M71 25.2H3a1 1 0 01-.82-1.572L13.1 7.988a1 1 0 01.82-.428h46.16a1 1 0 01.82.428l10.92 15.64A1 1 0 0171 25.2zm-66.082-2h64.164L59.559 9.56H14.441z"></path>
    <path d="M53.855 25.2h-33.71a1 1 0 01-.9-1.428l7.414-15.64a1 1 0 01.9-.572h18.882a1 1 0 01.9.572l7.414 15.64a1 1 0 01-.9 1.428zm-32.129-2h30.548L45.809 9.56H28.191z"></path>
  </symbol>
  <symbol  viewBox="0 0 512 512" id="gamepad">
    <path d="M508.641 355.165l-44.988-154.747c-10.403-35.782-43.671-60.773-80.902-60.773-25.938 0-52.265 12.115-68.8 35.564h-41.045v-41.688c0-28.028 22.803-50.832 50.832-50.832H467.75c9.302 0 16.844-7.541 16.844-16.844s-7.541-16.844-16.844-16.844H323.739c-46.604 0-84.519 37.915-84.519 84.519v41.688h-41.152c-16.407-23.269-42.641-35.564-68.8-35.564-37.23 0-70.499 24.99-80.901 60.773L3.379 355.165c-13.006 44.73 12.669 91.457 57.404 104.462 45.434 13.207 91.765-13.732 104.461-57.404l10.933-37.607H335.84l10.933 37.607c12.698 43.678 59.049 70.605 104.462 57.404 44.627-12.974 70.378-59.835 57.406-104.462zm-66.809 72.115c-27.38 7.961-55.112-8.326-62.711-34.46l-14.463-49.749a16.843 16.843 0 00-16.173-12.142h-184.95a16.842 16.842 0 00-16.173 12.142l-14.463 49.749c-7.584 26.087-35.283 42.436-62.71 34.46-26.852-7.806-42.269-35.853-34.461-62.71l44.987-154.747c6.247-21.485 26.213-36.49 48.554-36.49 17.987 0 35.415 9.582 44.6 26.688a16.843 16.843 0 0014.84 8.875h134.603c6.203 0 11.905-3.41 14.839-8.875 9.157-17.052 26.565-26.689 44.601-26.689 22.341 0 42.309 15.005 48.555 36.49l44.987 154.746c7.787 26.791-7.673 54.923-34.462 62.712z"></path>
    <path d="M379.157 223.624c-25.259 0-45.808 20.549-45.808 45.807s20.549 45.807 45.808 45.807c25.258 0 45.807-20.549 45.807-45.807s-20.549-45.807-45.807-45.807zm0 57.928c-6.684 0-12.121-5.437-12.121-12.12s5.437-12.12 12.121-12.12c6.682 0 12.12 5.437 12.12 12.12s-5.438 12.12-12.12 12.12zm-88.007-28.963h-70.282c-9.302 0-16.844 7.542-16.844 16.844s7.542 16.844 16.844 16.844h70.282c9.302 0 16.844-7.541 16.844-16.844s-7.542-16.844-16.844-16.844zm-125.433 1.392h-17.653v-17.652c0-9.302-7.542-16.844-16.844-16.844s-16.844 7.541-16.844 16.844v17.652H96.725c-9.302 0-16.844 7.542-16.844 16.844s7.542 16.844 16.844 16.844h17.652v17.652c0 9.302 7.541 16.844 16.844 16.844s16.844-7.542 16.844-16.844v-17.652h17.653c9.302 0 16.844-7.541 16.844-16.844s-7.542-16.844-16.845-16.844z"></path>
  </symbol>
  <symbol  viewBox="0 0 271.673 271.673" id="grid">
    <path d="M114.939 0H10.449C4.678 0 0 4.678 0 10.449v104.49c0 5.771 4.678 10.449 10.449 10.449h104.49c5.771 0 10.449-4.678 10.449-10.449V10.449C125.388 4.678 120.71 0 114.939 0zm146.285 0h-104.49c-5.771 0-10.449 4.678-10.449 10.449v104.49c0 5.771 4.678 10.449 10.449 10.449h104.49c5.771 0 10.449-4.678 10.449-10.449V10.449C271.673 4.678 266.995 0 261.224 0zM114.939 146.286H10.449C4.678 146.286 0 150.964 0 156.735v104.49c0 5.771 4.678 10.449 10.449 10.449h104.49c5.771 0 10.449-4.678 10.449-10.449v-104.49c0-5.771-4.678-10.449-10.449-10.449zm146.285 0h-104.49c-5.771 0-10.449 4.678-10.449 10.449v104.49c0 5.771 4.678 10.449 10.449 10.449h104.49c5.771 0 10.449-4.678 10.449-10.449v-104.49c0-5.771-4.678-10.449-10.449-10.449z"></path>
  </symbol>
  <symbol  viewBox="0 0 511.626 511.626" id="heart">
    <path d="M475.366 71.949c-24.175-23.606-57.575-35.404-100.215-35.404-11.8 0-23.843 2.046-36.117 6.136-12.279 4.093-23.702 9.615-34.256 16.562-10.568 6.945-19.65 13.467-27.269 19.556a263.828 263.828 0 00-21.696 19.414 264.184 264.184 0 00-21.698-19.414c-7.616-6.089-16.702-12.607-27.268-19.556-10.564-6.95-21.985-12.468-34.261-16.562-12.275-4.089-24.316-6.136-36.116-6.136-42.637 0-76.039 11.801-100.211 35.404C12.087 95.55 0 128.286 0 170.16c0 12.753 2.24 25.891 6.711 39.398 4.471 13.514 9.566 25.031 15.275 34.546 5.708 9.514 12.181 18.792 19.414 27.834 7.233 9.041 12.519 15.272 15.846 18.698 3.33 3.426 5.948 5.903 7.851 7.427L243.25 469.938c3.427 3.426 7.614 5.144 12.562 5.144s9.138-1.718 12.563-5.144l177.87-171.31c43.588-43.58 65.38-86.406 65.38-128.472.001-41.877-12.085-74.61-36.259-98.207zm-53.961 199.846L255.813 431.391 89.938 271.507C54.344 235.922 36.55 202.133 36.55 170.156c0-15.415 2.046-29.026 6.136-40.824 4.093-11.8 9.327-21.177 15.703-28.124 6.377-6.949 14.132-12.607 23.268-16.988 9.141-4.377 18.086-7.328 26.84-8.85 8.754-1.52 18.079-2.281 27.978-2.281 9.896 0 20.557 2.424 31.977 7.279 11.418 4.853 21.934 10.944 31.545 18.271 9.613 7.332 17.845 14.183 24.7 20.557 6.851 6.38 12.559 12.229 17.128 17.559 3.424 4.189 8.091 6.283 13.989 6.283 5.9 0 10.562-2.094 13.99-6.283 4.568-5.33 10.28-11.182 17.131-17.559 6.852-6.374 15.085-13.222 24.694-20.557 9.613-7.327 20.129-13.418 31.553-18.271 11.416-4.854 22.08-7.279 31.977-7.279s19.219.761 27.977 2.281c8.757 1.521 17.702 4.473 26.84 8.85 9.137 4.38 16.892 10.042 23.267 16.988 6.376 6.947 11.612 16.324 15.705 28.124 4.086 11.798 6.132 25.409 6.132 40.824-.002 31.977-17.89 65.86-53.675 101.639z"></path>
  </symbol>
  <symbol  viewBox="0 0 353.176 353.176" id="magic-wand">
    <path d="M.261 321.306l31.347 31.87 163.527-163.527-31.87-31.347zm174.498-174.498l31.347 31.347 40.751-40.228-31.869-31.347zm103.968-64.261a7.839 7.839 0 005.747-2.09l37.094-37.094a7.836 7.836 0 00-10.971-10.971l-37.094 37.094a7.836 7.836 0 000 10.971 7.308 7.308 0 005.224 2.09zm66.351 29.78h-52.245a7.837 7.837 0 000 15.674h52.245a7.837 7.837 0 000-15.674zm-23.511 75.232l-37.094-37.094a8.88 8.88 0 00-10.971 0 8.359 8.359 0 000 11.494l37.094 36.571a7.31 7.31 0 005.224 2.612 8.362 8.362 0 005.747-2.612 7.314 7.314 0 000-10.971zM192 80.457a8.882 8.882 0 0011.494 0 8.88 8.88 0 000-10.971L166.4 32.392a7.836 7.836 0 00-10.971 10.971L192 80.457zm40.751-12.539a7.837 7.837 0 007.837-7.837V7.837a7.837 7.837 0 00-15.674 0v52.245a7.836 7.836 0 007.837 7.836z"></path>
  </symbol>
  <symbol  viewBox="0 0 480 480" id="mobile">
    <path d="M352 0H128c-22.08.026-39.974 17.92-40 40v400c.026 22.08 17.92 39.974 40 40h224c22.08-.026 39.974-17.92 40-40V40c-.026-22.08-17.92-39.974-40-40zm24 440c0 13.255-10.745 24-24 24H128c-13.255 0-24-10.745-24-24v-8h272v8zm0-24H104V64h272v352zm0-368H104v-8c0-13.255 10.745-24 24-24h224c13.255 0 24 10.745 24 24v8z"></path>
    <path d="M224 24h-16a8 8 0 000 16h16a8 8 0 000-16zm56 0h-32a8 8 0 000 16h32a8 8 0 000-16zm-16 416h-48a8 8 0 000 16h48a8 8 0 000-16z"></path>
  </symbol>
  <symbol  viewBox="0 0 469.333 469.333" id="paint-bucket">
    <path d="M418.123 248.895c.285-.259.684-.331.958-.605 4.687-4.687 7.249-11.019 7.604-18.809 1.437-30.328-33.997-87.109-88.16-141.267C285.633 35.317 229.762 0 199.098 0h-.667c-8.333.146-15.061 2.729-19.998 7.665-.272.272-.419.621-.676.903l-.074-.06-27.737 34.378C96.82 45.239 21.445 82.79 21.445 138.642c0 17.354 7.182 30.769 17.965 41.237L6.842 220.242c-2.875 2.885-6.431 8.124-6.806 16.653-1.187 25.735 27.388 71.675 72.738 117.031 44.309 44.294 89.493 72.747 115.429 72.747h.583c9.187-.156 14.707-3.822 16.874-6.082L418.248 249.05l-.125-.155zM130.653 66.797l-77.844 96.476c-6.109-6.672-10.032-14.728-10.032-24.631-.001-35.254 46.698-63.228 87.876-71.845zm60.716 337.985c-.104.104-.937.531-2.937.562h-.292c-16.415 0-56.954-23.194-100.284-66.499-44.163-44.169-67.224-84.985-66.495-100.972.083-1.718.458-2.448 1.333-3.416L56.479 192.6c27.713 15.949 64.552 20.694 82.289 20.694 22.658 0 40.591-.605 60.4-5.703 3.791 3.459 8.731 5.703 14.261 5.703 11.77 0 21.332-9.571 21.332-21.33 0-11.758-9.562-21.33-21.332-21.33-10.111 0-18.195 7.208-20.385 16.655-16.229 4.113-31.451 4.675-54.276 4.675-12.317 0-45.058-3.4-68.895-15.958L173.957 47.062c10.465 34.703 45.865 81.522 85.033 120.679 39.265 39.27 86.125 74.521 120.857 84.879L191.369 404.782zm214.026-176.291c-.061 1.261-.348 3.469-1.329 4.576l-.253.204c-8.718 8.096-61.989-12.865-129.741-80.611-67.861-67.843-88.745-121.1-80.605-129.769l.159-.198c1.277-1.209 3.721-1.446 5.576-1.364 21.061 0 70.286 28.026 124.241 81.965 54.495 54.49 82.889 105.159 81.952 125.197zm19.379 96.139c-3.958-5.77-13.582-5.77-17.54 0-7.437 10.769-44.559 65.79-44.559 91.38 0 29.401 23.915 53.324 53.329 53.324s53.329-23.923 53.329-53.324c0-25.59-37.122-80.611-44.559-91.38zm-8.77 123.374c-17.645 0-31.998-14.352-31.998-31.994 0-11.644 16.645-42.045 31.998-66.04 15.353 23.985 31.998 54.376 31.998 66.04 0 17.642-14.353 31.994-31.998 31.994z"></path>
  </symbol>
  <symbol  viewBox="0 0 512 512" id="plane">
    <path d="M511.996 60.921c.168-16.341-6.104-31.703-17.659-43.259C482.933 6.257 467.822 0 451.719 0l-.642.003c-16.341.168-31.571 6.755-42.885 18.545l-89.617 93.385L84.076 34.329l-69.253 69.253 195.97 120.664-80.635 84.026-63.288-10.39L0 364.75l109.054 38.197L147.25 512l66.87-66.87-10.39-63.288 84.026-80.635L408.42 497.178l69.254-69.253-77.604-234.499 93.384-89.617c11.789-11.316 18.374-26.547 18.542-42.888zm-39.335 21.221L365.608 184.876l77.739 234.907-29.285 29.285-120.248-195.295-122.277 117.343 10.454 63.675-22.193 22.193-27.18-77.602-77.602-27.18 22.193-22.193 63.675 10.454 117.343-122.276L62.933 97.94l29.285-29.285 234.907 77.739L429.859 39.341c5.679-5.919 13.326-9.225 21.529-9.31.107-.002.215-.002.321-.002 8.083 0 15.67 3.141 21.396 8.867 5.802 5.801 8.949 13.513 8.865 21.716-.085 8.203-3.391 15.849-9.309 21.53z"></path>
  </symbol>
  <symbol  viewBox="-119 -21 682 682.667" id="pointer">
    <path d="M216.21 0C93.548 0-6.25 99.797-6.25 222.46-6.25 376.638 216.43 640 216.43 640s222.242-270.945 222.242-417.54C438.672 99.798 338.879 0 216.21 0zm67.122 287.598c-18.508 18.504-42.812 27.757-67.121 27.757-24.305 0-48.617-9.253-67.117-27.757-37.012-37.008-37.012-97.227 0-134.239 17.922-17.93 41.761-27.804 67.117-27.804 25.355 0 49.191 9.879 67.121 27.804 37.012 37.012 37.012 97.23 0 134.239zm0 0"></path>
  </symbol>
  <symbol  viewBox="0 0 428.439 428.439" id="portfolio">
    <path d="M428.423 361.027V123.313c.595-21.344-16.225-39.129-37.569-39.724a38.678 38.678 0 00-2.66.017h-85.159V67.411c.577-22.21-16.96-40.683-39.17-41.26a41.532 41.532 0 00-1.058-.014h-97.176c-22.218-.008-40.235 17.997-40.242 40.215 0 .353.004.706.014 1.058v16.196H40.244C18.909 82.733.906 99.319.032 120.653a38.674 38.674 0 00-.017 2.66v237.714c-.577 22.21 16.96 40.683 39.17 41.26.353.009.706.014 1.058.014h347.951c22.218.008 40.235-17.997 40.242-40.215.001-.353-.004-.706-.013-1.059zM164.558 47.064c.357-.019.715-.029 1.073-.028h97.176c10.676-.016 19.343 8.626 19.359 19.302.001.358-.009.716-.028 1.073v16.196H146.301V67.411c-.577-10.66 7.597-19.77 18.257-20.347zm224.71 334.311c-.357.019-.715.029-1.073.028H40.244c-10.676.016-19.343-8.626-19.359-19.302-.001-.358.009-.716.028-1.073v-68.441a32.402 32.402 0 0019.331 5.225h106.057v30.302a13.584 13.584 0 0012.539 11.494h110.759a13.584 13.584 0 0012.539-11.494v-30.302h106.057a32.388 32.388 0 0019.331-5.225v68.441c.576 10.66-7.598 19.77-18.258 20.347zm-222.069-62.666v-52.245h94.041v52.245h-94.041zm222.069-41.824c-.357.019-.715.029-1.073.028H282.137v-22.465c0-5.747-6.792-8.882-12.539-8.882H158.84c-5.747 0-12.539 3.135-12.539 8.882v22.465H40.244c-10.676.016-19.343-8.626-19.359-19.302-.001-.358.009-.716.028-1.073V123.313c-.617-9.791 6.82-18.228 16.611-18.845a17.77 17.77 0 012.72.037h347.951c9.77-.885 18.408 6.318 19.293 16.088.082.904.094 1.814.037 2.72v133.224c.577 10.661-7.597 19.771-18.257 20.348z"></path>
  </symbol>
  <symbol  viewBox="0 0 487.222 487.222" id="star">
    <path d="M486.554 186.811c-1.6-4.9-5.8-8.4-10.9-9.2l-152-21.6-68.4-137.5c-2.3-4.6-7-7.5-12.1-7.5s-9.8 2.9-12.1 7.6l-67.5 137.9-152 22.6c-5.1.8-9.3 4.3-10.9 9.2s-.2 10.3 3.5 13.8l110.3 106.9-25.5 151.4c-.9 5.1 1.2 10.2 5.4 13.2 2.3 1.7 5.1 2.6 7.9 2.6 2.2 0 4.3-.5 6.3-1.6l135.7-71.9 136.1 71.1c2 1 4.1 1.5 6.2 1.5 7.4 0 13.5-6.1 13.5-13.5 0-1.1-.1-2.1-.4-3.1l-26.3-150.5 109.6-107.5c3.9-3.6 5.2-9 3.6-13.9zm-137 107.1c-3.2 3.1-4.6 7.6-3.8 12l22.9 131.3-118.2-61.7c-3.9-2.1-8.6-2-12.6 0l-117.8 62.4 22.1-131.5c.7-4.4-.7-8.8-3.9-11.9l-95.6-92.8 131.9-19.6c4.4-.7 8.2-3.4 10.1-7.4l58.6-119.7 59.4 119.4c2 4 5.8 6.7 10.2 7.4l132 18.8-95.3 93.3z"></path>
  </symbol>
</svg>
