<svg xmlns="http://www.w3.org/2000/svg" display="none"><symbol viewBox="0 0 24 24" id="search"><path d="m21 19-5.154-5.154a7 7 0 1 0-2 2L19 21l2-2zM5 10c0-2.757 2.243-5 5-5s5 2.243 5 5-2.243 5-5 5-5-2.243-5-5z" fill="#fff"/></symbol><symbol viewBox="0 0 24 24" id="account"><path d="M12 4a4 4 0 1 1 0 8 4 4 0 0 1 0-8zm0 10c4.42 0 8 1.79 8 4v2H4v-2c0-2.21 3.58-4 8-4z" fill="#fff"/></symbol><symbol viewBox="0 0 18 18" id="like"><path d="M8.973 4.596C6.22.341.643 2.66.643 7.295c0 3.48 7.644 8.926 8.33 9.634.692-.708 7.956-6.153 7.956-9.634 0-4.6-5.196-6.954-7.956-2.699z" fill="#fff"/></symbol><symbol viewBox="0 0 512 512" id="basket"><path d="M473.119 181.538h-18.217L373.335 27.696c-3.881-7.32-12.961-10.105-20.281-6.228-7.32 3.881-10.108 12.961-6.227 20.281l74.116 139.787H93.233L167.349 41.75c3.881-7.32 1.093-16.4-6.227-20.281-7.319-3.881-16.4-1.093-20.281 6.228L59.274 181.538H38.881C17.442 181.538 0 198.979 0 220.419 0 241.858 17.442 259.3 38.881 259.3h1.079c.033.214.058.429.096.643L71.34 435.358c5.883 32.984 34.47 56.924 67.974 56.924H374.86c33.504 0 62.092-23.94 67.974-56.924l31.284-175.414c.04-.223.067-.447.101-.67 20.931-.588 37.78-17.785 37.78-38.854.001-21.441-17.441-38.882-38.88-38.882zm-281.25 259.72a15.1 15.1 0 0 1-2.509.21c-7.19 0-13.541-5.185-14.774-12.512l-22.124-131.351c-1.376-8.17 4.131-15.909 12.301-17.285 8.162-1.374 15.909 4.131 17.285 12.302l22.124 131.351c1.374 8.17-4.133 15.909-12.303 17.285zm78.484-14.793c0 8.285-6.717 15.001-15.001 15.001-8.285 0-15.001-6.717-15.001-15.001V295.113c0-8.285 6.717-15.001 15.001-15.001 8.285 0 15.001 6.717 15.001 15.001v131.352zm86.845-128.86-22.124 131.351c-1.234 7.327-7.585 12.512-14.774 12.512-.828 0-1.666-.068-2.509-.21-8.17-1.376-13.677-9.115-12.301-17.285l22.124-131.351c1.376-8.171 9.124-13.669 17.285-12.302 8.167 1.376 13.675 9.115 12.299 17.285z" fill="#fff"/></symbol><symbol viewBox="0 0 80 80" id="play-btn"><path d="M40 5C20.672 5 5 20.672 5 40s15.672 35 35 35 35-15.672 35-35S59.328 5 40 5zm11.258 35.54L34.195 52.952a.626.626 0 0 1-.992-.508V27.633a.624.624 0 0 1 .992-.508l17.063 12.406a.619.619 0 0 1 0 1.008z" fill="#fff"/></symbol><symbol viewBox="0 0 20 20" id="phone"><path d="M17.256 12.253c-.096-.667-.611-1.187-1.274-1.342-2.577-.604-3.223-2.088-3.332-3.734C12.193 7.092 11.38 7 10 7s-2.193.092-2.65.177c-.109 1.646-.755 3.13-3.332 3.734-.663.156-1.178.675-1.274 1.342l-.497 3.442C2.072 16.907 2.962 18 4.2 18h11.6c1.237 0 2.128-1.093 1.953-2.305l-.497-3.442zM10 15.492c-1.395 0-2.526-1.12-2.526-2.5s1.131-2.5 2.526-2.5c1.395 0 2.526 1.12 2.526 2.5s-1.132 2.5-2.526 2.5zM19.95 6c-.024-1.5-3.842-3.999-9.95-4C3.891 2.001.073 4.5.05 6 .027 7.5.071 9.452 2.585 9.127c2.941-.381 2.76-1.408 2.76-2.876C5.345 5.227 7.737 4.98 10 4.98c2.263 0 4.654.247 4.655 1.271 0 1.468-.181 2.495 2.76 2.876C19.928 9.452 19.973 7.5 19.95 6z"/></symbol><symbol viewBox="0 0 20 20" id="mail"><path d="m1.574 5.286 7.5 4.029c.252.135.578.199.906.199.328 0 .654-.064.906-.199l7.5-4.029c.489-.263.951-1.286.054-1.286H1.521c-.897 0-.435 1.023.053 1.286zm17.039 2.203-7.727 4.027c-.34.178-.578.199-.906.199-.328 0-.566-.021-.906-.199-.34-.178-7.133-3.739-7.688-4.028-.39-.204-.386.035-.386.219V15c0 .42.566 1 1 1h16c.434 0 1-.58 1-1V7.708c0-.184.004-.423-.387-.219z"/></symbol><symbol viewBox="0 0 26 26" id="youtube"><path d="M23.896 7.524a2.843 2.843 0 0 0-2.007-2.007c-1.771-.48-8.889-.48-8.889-.48s-7.117 0-8.889.48a2.844 2.844 0 0 0-2.007 2.007A29.356 29.356 0 0 0 1.625 13c-.012 1.836.149 3.67.48 5.476a2.844 2.844 0 0 0 2.006 2.007c1.772.48 8.889.48 8.889.48s7.117 0 8.889-.48a2.844 2.844 0 0 0 2.007-2.007c.33-1.806.49-3.64.479-5.476a29.346 29.346 0 0 0-.48-5.476zm-13.171 8.889V9.588L16.632 13l-5.907 3.413z"/></symbol><symbol viewBox="0 0 24 24" id="telegram"><path d="m20.665 3.717-17.73 6.837c-1.21.486-1.203 1.161-.222 1.462l4.552 1.42 10.532-6.645c.498-.303.953-.14.579.192l-8.533 7.701h-.002l.002.001-.314 4.692c.46 0 .663-.21.921-.46l2.211-2.15 4.599 3.397c.848.467 1.457.227 1.668-.785l3.019-14.228c.309-1.239-.473-1.8-1.282-1.434z"/></symbol><symbol viewBox="0 0 26 26" id="facebook"><path d="M14.513 22.747v-8.88h2.996l.445-3.476h-3.44V8.177c0-1.003.279-1.69 1.719-1.69h1.824v-3.1a24.198 24.198 0 0 0-2.673-.137c-2.647 0-4.465 1.616-4.465 4.584v2.55H7.943v3.477h2.982v8.886h3.588z"/></symbol><symbol viewBox="0 0 24 24" id="vkontakte"><path d="M21.362 14.758s1.94 1.916 2.42 2.803a.15.15 0 0 1 .022.042c.196.327.244.584.148.774-.162.313-.71.47-.896.483h-3.43c-.239 0-.736-.062-1.34-.48-.462-.322-.922-.854-1.367-1.373-.665-.772-1.24-1.442-1.822-1.442a.656.656 0 0 0-.216.036c-.44.14-1 .767-1 2.439 0 .523-.412.82-.701.82h-1.571c-.535 0-3.322-.187-5.793-2.792C2.79 12.878.07 6.48.043 6.424c-.169-.414.186-.64.57-.64h3.463c.465 0 .616.28.722.533.122.289.576 1.446 1.32 2.745 1.204 2.115 1.945 2.975 2.536 2.975a.63.63 0 0 0 .317-.084c.773-.425.629-3.185.593-3.753 0-.11-.001-1.233-.397-1.775-.283-.389-.766-.54-1.057-.595.078-.113.243-.286.456-.388.529-.264 1.485-.302 2.434-.302h.527c1.03.014 1.296.08 1.67.175.754.18.769.668.703 2.331-.02.476-.04 1.01-.04 1.64 0 .135-.006.285-.006.438-.023.853-.053 1.814.55 2.209a.492.492 0 0 0 .26.074c.209 0 .834 0 2.53-2.91.744-1.285 1.32-2.8 1.36-2.915.033-.063.134-.242.256-.314a.575.575 0 0 1 .283-.067h4.074c.444 0 .745.067.804.235.099.272-.019 1.104-1.879 3.62-.313.418-.588.78-.83 1.097-1.685 2.213-1.685 2.325.1 4.005z"/></symbol><symbol viewBox="0 0 16 16" id="etsy"><path d="M5.71 1.63c0-.217.021-.347.393-.347h4.976c.867 0 1.347.74 1.694 2.129l.28 1.11h.846c.154-3.151.287-4.522.287-4.522s-2.13.24-3.393.24H4.427L1.017.13v.914l1.15.217c.807.16 1 .331 1.067 1.071 0 0 .073 2.18.073 5.76 0 3.59-.06 5.74-.06 5.74 0 .649-.26.889-1.06 1.049l-1.148.22V16l3.42-.11h5.7c1.29 0 4.26.11 4.26.11.07-.78.5-4.32.57-4.71h-.8l-.856 1.94c-.67 1.52-1.65 1.63-2.74 1.63h-3.27c-1.087 0-1.61-.426-1.61-1.366v-4.96s2.413 0 3.193.063c.608.043.975.217 1.173 1.066l.26 1.13h.94l-.06-2.852.128-2.87h-.927l-.3 1.26c-.189.829-.32.98-1.17 1.066-1.11.114-3.21.094-3.21.094V1.633h-.033l.002-.003z"/></symbol><symbol viewBox="0 0 70 70" id="advantage-delivery"><path d="M61.25 39.346c-.604 0-1.094.49-1.094 1.094v7.664h-1.74a6.913 6.913 0 0 0-13.737 0H21.875V16.385h38.281v3.44a1.094 1.094 0 0 0 2.188 0v-4.533c0-.604-.49-1.094-1.094-1.094H20.781c-.604 0-1.093.49-1.093 1.094v1.093H7.162a4.98 4.98 0 0 0-4.974 4.975v1.588c0 .604.49 1.094 1.093 1.094h1.272L3.72 34.066A4.971 4.971 0 0 0 0 38.86v9.244c0 .604.49 1.094 1.094 1.094h2.215a7.103 7.103 0 0 0 14.164 0c.01 0 .017.005.027.005h2.188c0 .604.49 1.094 1.093 1.094h23.997a6.915 6.915 0 0 0 13.539 0h2.933c.604 0 1.094-.49 1.094-1.094V40.44c0-.604-.49-1.094-1.094-1.094zM10.39 53.573a4.922 4.922 0 1 1 0-9.844 4.922 4.922 0 0 1 0 9.844zm9.297-6.563H17.5c-.064.007-.128.02-.19.039a7.1 7.1 0 0 0-13.83-.039H2.188v-8.15a2.79 2.79 0 0 1 2.786-2.787h14.713V47.01zm0-13.125H5.928l.82-9.843h12.94v9.843zm0-12.03H4.376v-.495a2.79 2.79 0 0 1 2.787-2.787h12.526v3.281zm36.58 27.3a4.718 4.718 0 0 1-4.719 4.453 4.726 4.726 0 0 1-4.647-3.92.984.984 0 0 0-.056-1.063 4.719 4.719 0 0 1 9.422.53z"/><path d="M60.156 22.948H44.844a1.094 1.094 0 0 0 0 2.187h15.312a1.094 1.094 0 1 0 0-2.187zm2.188 12.032H38.28a1.094 1.094 0 0 0 0 2.187h24.063a1.094 1.094 0 0 0 0-2.188zm-2.188-6.563H48.125a1.094 1.094 0 0 0 0 2.187h12.031a1.094 1.094 0 1 0 0-2.187zm4.375-3.282h2.188a1.094 1.094 0 0 0 0-2.187H64.53a1.094 1.094 0 0 0 0 2.187zm3.282 9.845h-2.188a1.094 1.094 0 0 0 0 2.187h2.188a1.094 1.094 0 0 0 0-2.188zm1.093-6.563h-4.375a1.094 1.094 0 0 0 0 2.187h4.375a1.094 1.094 0 1 0 0-2.187z"/></symbol><symbol viewBox="0 0 70 70" id="advantage-jewelry"><path d="M25.364 43.713a3.77 3.77 0 0 0-3.254-1.877h-4.952v-2.97c2.335-.456 4.17-2.437 4.36-4.88a1.026 1.026 0 0 0-2.046-.159 3.363 3.363 0 0 1-3.339 3.087 3.353 3.353 0 0 1-3.35-3.35 3.353 3.353 0 0 1 5.024-2.902 1.025 1.025 0 1 0 1.027-1.775c-.52-.3-1.087-.51-1.676-.624v-2.99a3.424 3.424 0 0 0 2.393-3.261c0-1.53-1.01-2.828-2.399-3.263l.02-2.131a.725.725 0 0 1 .589-.702c3.69-.77 6.37-4.082 6.37-7.876 0-4.355-3.649-8.037-7.968-8.04h-.004c-3.114 0-6.013 1.975-7.387 5.032a1.025 1.025 0 0 0 1.87.84c1.044-2.321 3.21-3.821 5.517-3.821h.003c2.858.002 5.918 2.409 5.918 5.99 0 2.827-1.992 5.295-4.738 5.868a2.763 2.763 0 0 0-2.22 2.69l-.02 2.154a3.423 3.423 0 0 0-2.387 3.259 3.424 3.424 0 0 0 2.393 3.26v2.99a5.409 5.409 0 0 0-4.375 5.303 5.409 5.409 0 0 0 4.375 5.301v2.97h-4.952c-1.337 0-2.584.72-3.254 1.877L.93 54.035a3.77 3.77 0 0 0 0 3.766l5.972 10.322A3.771 3.771 0 0 0 10.156 70H22.11c1.337 0 2.584-.72 3.254-1.877l5.972-10.322a3.77 3.77 0 0 0 0-3.766l-5.972-10.322zm-9.231-23.069a1.369 1.369 0 0 1 0 2.734 1.369 1.369 0 0 1-1.367-1.366c0-.754.613-1.367 1.367-1.367zm13.428 36.13-5.972 10.322a1.714 1.714 0 0 1-1.48.853H10.157a1.714 1.714 0 0 1-1.479-.853L2.705 56.774a1.714 1.714 0 0 1 0-1.712L8.677 44.74a1.714 1.714 0 0 1 1.48-.853H22.11c.608 0 1.175.327 1.479.853l5.972 10.322a1.714 1.714 0 0 1 0 1.712z"/><path d="M21.244 49.447a2.4 2.4 0 0 0-2.072-1.197h-6.078a2.4 2.4 0 0 0-2.072 1.197L7.983 54.71a2.4 2.4 0 0 0 0 2.393l.48.832a1.026 1.026 0 0 0 1.776-1.026l-.48-.832a.343.343 0 0 1 0-.341l3.039-5.264a.343.343 0 0 1 .296-.171h6.078c.121 0 .235.066.296.17l3.038 5.265a.34.34 0 0 1 0 .341l-3.038 5.264a.343.343 0 0 1-.296.171h-6.078c-.257.022-.377-.33-.487-.501a1.026 1.026 0 0 0-1.776 1.025l.19.33a2.4 2.4 0 0 0 2.073 1.197h6.078a2.4 2.4 0 0 0 2.071-1.197l3.04-5.263a2.4 2.4 0 0 0 0-2.393l-3.04-5.264zm47.826 4.588-1.739-3.005a1.025 1.025 0 1 0-1.775 1.027l1.74 3.005a1.714 1.714 0 0 1 0 1.712l-5.973 10.322a1.714 1.714 0 0 1-1.479.853H47.891a1.714 1.714 0 0 1-1.48-.853L40.44 56.774a1.714 1.714 0 0 1 0-1.712l5.97-10.322a1.714 1.714 0 0 1 1.48-.853h11.953c.608 0 1.175.327 1.48.853l1.86 3.215a1.025 1.025 0 1 0 1.774-1.027l-1.86-3.215a3.77 3.77 0 0 0-3.254-1.877h-4.951v-2.97a5.409 5.409 0 0 0 4.375-5.301 5.409 5.409 0 0 0-4.375-5.302v-2.99a3.424 3.424 0 0 0 2.392-3.261c0-1.53-1.01-2.828-2.398-3.263l.02-2.131a.725.725 0 0 1 .588-.702c3.691-.77 6.37-4.082 6.37-7.876 0-.304-.017-.61-.051-.91a1.025 1.025 0 1 0-2.038.233c.026.223.038.45.038.677 0 2.828-1.992 5.296-4.738 5.869a2.763 2.763 0 0 0-2.22 2.689l-.02 2.155a3.424 3.424 0 0 0-2.387 3.259 3.424 3.424 0 0 0 2.393 3.26v2.99a5.409 5.409 0 0 0-4.375 5.303 5.409 5.409 0 0 0 4.375 5.301v2.97H47.89c-1.338 0-2.585.72-3.255 1.877l-5.972 10.322a3.77 3.77 0 0 0 0 3.766l5.972 10.322A3.771 3.771 0 0 0 47.891 70h11.953c1.337 0 2.584-.72 3.255-1.877l5.971-10.322a3.77 3.77 0 0 0 0-3.766zm-15.203-33.39c.754 0 1.368.613 1.368 1.367s-.614 1.367-1.368 1.367a1.369 1.369 0 0 1-1.367-1.367c0-.754.614-1.367 1.367-1.367zm-3.35 12.92a3.353 3.353 0 0 1 3.35-3.35 3.353 3.353 0 0 1 3.35 3.35 3.353 3.353 0 0 1-3.35 3.35 3.353 3.353 0 0 1-3.35-3.35zM47.021 6.388c.505.23 1.123.007 1.356-.515C49.42 3.55 51.586 2.05 53.893 2.05h.003c1.465 0 2.948.619 4.07 1.696a1.025 1.025 0 0 0 1.42-1.478C57.887.829 55.886 0 53.898 0h-.005c-3.113 0-6.013 1.975-7.386 5.032a1.025 1.025 0 0 0 .514 1.356z"/><path d="M56.906 48.25h-6.078a2.4 2.4 0 0 0-2.072 1.197l-3.038 5.263a2.399 2.399 0 0 0 0 2.393l3.038 5.264a2.4 2.4 0 0 0 2.072 1.196h6.078a2.4 2.4 0 0 0 2.072-1.197l3.039-5.263a2.4 2.4 0 0 0 0-2.393l-3.04-5.264a2.4 2.4 0 0 0-2.071-1.196zm3.334 7.827-3.038 5.264a.343.343 0 0 1-.296.171h-6.078a.343.343 0 0 1-.296-.17l-3.039-5.265a.343.343 0 0 1 0-.341l3.04-5.264a.343.343 0 0 1 .295-.171h6.078c.122 0 .235.066.296.17l3.038 5.265a.34.34 0 0 1 0 .341z"/></symbol><symbol viewBox="0 0 70 70" id="advantage-list"><path d="M50.313 2.188h-8.75V1.093a1.094 1.094 0 0 0-2.188 0v1.093h-8.75V1.095a1.094 1.094 0 0 0-2.188 0v1.093h-8.75V1.095a1.094 1.094 0 0 0-2.187 0v1.093H8.75c-.604 0-1.094.49-1.094 1.094v65.625c0 .604.49 1.094 1.094 1.094h41.563c.603 0 1.093-.49 1.093-1.094V3.281c0-.604-.49-1.094-1.093-1.094zm-1.094 65.624H9.844V4.376H17.5v3.281a1.094 1.094 0 0 0 2.188 0V4.375h8.75v3.281a1.094 1.094 0 0 0 2.187 0V4.375h8.75v3.281a1.094 1.094 0 0 0 2.188 0V4.375h7.656v63.438z"/><path d="M25.156 12.031H14.22c-.604 0-1.094.49-1.094 1.094v10.938c0 .604.49 1.093 1.094 1.093h10.937c.604 0 1.094-.49 1.094-1.093V13.124c0-.604-.49-1.094-1.094-1.094zM24.063 22.97h-8.75v-8.75h8.75v8.75zm1.093 4.374H14.22c-.604 0-1.094.49-1.094 1.093v10.938c0 .604.49 1.094 1.094 1.094h10.937c.604 0 1.094-.49 1.094-1.094V28.437c0-.604-.49-1.093-1.094-1.093zM24.063 38.28h-8.75v-8.75h8.75v8.75zm1.093 4.376H14.22c-.604 0-1.094.49-1.094 1.094v10.938c0 .603.49 1.093 1.094 1.093h10.937c.604 0 1.094-.49 1.094-1.093V43.75c0-.604-.49-1.094-1.094-1.094zm-1.093 10.938h-8.75v-8.75h8.75v8.75zm5.468-39.375c0 .604.49 1.094 1.094 1.094H43.75a1.094 1.094 0 0 0 0-2.188H30.625c-.604 0-1.094.49-1.094 1.094zm14.219 7.656H30.625a1.094 1.094 0 0 0 0 2.188H43.75a1.094 1.094 0 0 0 0-2.188zm-13.125-2.187h5.469a1.094 1.094 0 0 0 0-2.188h-5.469a1.094 1.094 0 0 0 0 2.188zm10.938 0a1.094 1.094 0 0 0 0-2.188h-2.188a1.094 1.094 0 0 0 0 2.188h2.188zm2.187 8.75H30.625a1.094 1.094 0 0 0 0 2.187H43.75a1.094 1.094 0 0 0 0-2.188zm0 8.75H30.625a1.094 1.094 0 0 0 0 2.187H43.75a1.094 1.094 0 0 0 0-2.188zM30.625 35h5.469a1.094 1.094 0 0 0 0-2.188h-5.469a1.094 1.094 0 0 0 0 2.188zm10.938 0a1.094 1.094 0 0 0 0-2.188h-2.188a1.094 1.094 0 0 0 0 2.188h2.188zm2.187 8.75H30.625a1.094 1.094 0 0 0 0 2.188H43.75a1.094 1.094 0 0 0 0-2.188zm0 8.75H30.625a1.094 1.094 0 0 0 0 2.188H43.75a1.094 1.094 0 0 0 0-2.188zm-13.125-2.187h5.469a1.094 1.094 0 0 0 0-2.188h-5.469a1.094 1.094 0 0 0 0 2.188zm10.938 0a1.094 1.094 0 0 0 0-2.188h-2.188a1.094 1.094 0 0 0 0 2.188h2.188zm16.953-36.094a3.828 3.828 0 0 0-3.828 3.828v32.266a.935.935 0 0 0 .02.095.696.696 0 0 0 0 .084l1.093 6.562c.087.526.541.912 1.074.915h3.281c.535 0 .991-.387 1.079-.915l1.093-6.562a.696.696 0 0 0 0-.084.958.958 0 0 0 .016-.096V18.047a3.828 3.828 0 0 0-3.828-3.828zm.714 41.562H57.8l-.728-4.375h2.885l-.728 4.375zm.926-6.562h-3.281v-26.25h3.281v26.25zm0-28.438h-3.281v-2.734a1.64 1.64 0 0 1 3.281 0v2.734z"/></symbol><symbol viewBox="0 0 70 70" id="advantage-ribbon"><path d="M45.744 40.94 35.9 26.722a1.093 1.093 0 0 0-1.8 0L24.258 40.94a1.094 1.094 0 0 0-.138.968l2.801 8.404h-.67a1.093 1.093 0 0 0-1.094 1.094v3.282a1.094 1.094 0 0 0 1.094 1.093h1.094v12.032a1.094 1.094 0 0 0 1.094 1.093h13.125a1.094 1.094 0 0 0 1.093-1.094v-12.03h1.094a1.094 1.094 0 0 0 1.094-1.094v-3.282a1.094 1.094 0 0 0-1.094-1.093h-.67l2.802-8.405a1.091 1.091 0 0 0-.138-.968zM35 39.375a1.094 1.094 0 1 1 0 2.188 1.094 1.094 0 0 1 0-2.188zm5.469 27.344H29.53V55.78h10.94v10.94zm2.187-13.125H27.344V52.5h15.312v1.094zm-1.882-3.282H29.227l-2.86-8.576 7.54-10.89v6.341c0 .062.006.123.016.184a3.281 3.281 0 1 0 2.154 0c.01-.06.016-.122.017-.184v-6.342l7.54 10.891-2.86 8.577z"/><path d="M67.813 13.125h-4.376a1.093 1.093 0 0 0-1.093 1.094v1.103a1.118 1.118 0 0 0-.137-.01H38.281V14.22a1.094 1.094 0 0 0-1.093-1.094h-1.094v-5.47h1.093a1.094 1.094 0 0 0 1.094-1.093V2.188a1.094 1.094 0 0 0-1.093-1.094h-4.376a1.094 1.094 0 0 0-1.093 1.093v4.376a1.094 1.094 0 0 0 1.093 1.093h1.094v5.469h-1.093a1.093 1.093 0 0 0-1.094 1.094v1.094H7.656v-1.094a1.094 1.094 0 0 0-1.093-1.094H2.188a1.093 1.093 0 0 0-1.094 1.094v4.375a1.094 1.094 0 0 0 1.093 1.093h4.376a1.093 1.093 0 0 0 1.093-1.093V17.5H25.74a17.106 17.106 0 0 0-3.827 3.466c-2.804 3.4-4.412 7.718-4.412 11.846h-1.094a1.093 1.093 0 0 0-1.093 1.094v4.375a1.093 1.093 0 0 0 1.093 1.094h4.375a1.093 1.093 0 0 0 1.094-1.094v-4.375a1.093 1.093 0 0 0-1.094-1.093h-1.093c0-8.11 6.24-14.508 12.03-15.242v1.023a1.094 1.094 0 0 0 1.095 1.093h4.374a1.093 1.093 0 0 0 1.094-1.093v-1.027c2.962.351 5.804 2.126 8.098 5.086 2.233 2.878 3.65 6.605 3.895 10.16H49.22a1.093 1.093 0 0 0-1.094 1.093v4.375a1.093 1.093 0 0 0 1.094 1.094h4.375a1.093 1.093 0 0 0 1.093-1.094v-4.375a1.093 1.093 0 0 0-1.093-1.093h-1.128c-.24-4.062-1.797-8.2-4.357-11.501a17.283 17.283 0 0 0-4.02-3.812h18.118c.046 0 .091-.004.137-.01v1.104a1.094 1.094 0 0 0 1.093 1.093h4.376a1.093 1.093 0 0 0 1.093-1.093v-4.375a1.094 1.094 0 0 0-1.094-1.094zM5.468 17.5H3.28v-2.188h2.19V17.5zm14.218 19.688H17.5V35h2.188v2.188zM33.907 3.28h2.187v2.19h-2.188V3.28zm2.186 14.22h-2.188v-2.188h2.188V17.5zM50.312 35H52.5v2.188h-2.188V35zM66.72 17.5h-2.19v-2.188h2.188V17.5z"/></symbol><symbol viewBox="0 0 20 20" id="mobile-phone"><path d="m12.707 13.425 1.4-1.4a1.368 1.368 0 0 1 1.462-.3l1.707.681a1.362 1.362 0 0 1 .85 1.25v3.125a1.355 1.355 0 0 1-1.425 1.344C4.744 17.381 2.33 7.256 1.876 3.381a1.356 1.356 0 0 1 1.356-1.506H6.25a1.35 1.35 0 0 1 1.25.85l.68 1.706a1.35 1.35 0 0 1-.293 1.463l-1.4 1.4s.806 5.456 6.219 6.131z"/></symbol><symbol viewBox="0 0 20 20" id="location"><path d="M15.834 7.5a5.833 5.833 0 1 0-11.667 0c0 1.156.342 2.23.92 3.137h-.006c1.967 3.08 4.92 7.696 4.92 7.696l4.918-7.695h-.005c.6-.937.92-2.026.92-3.138zM10 10a2.5 2.5 0 1 1 0-5 2.5 2.5 0 0 1 0 5z"/></symbol></svg>