<svg xmlns="http://www.w3.org/2000/svg" display="none">
  <symbol viewBox="0 0 24 24" id="search">
    <path d="M21 19L15.846 13.846C16.7988 12.3979 17.1805 10.6477 16.917 8.93442C16.6536 7.22111 15.7638 5.66648 14.4199 4.57154C13.076 3.47659 11.3737 2.91923 9.64247 3.00735C7.91125 3.09547 6.27431 3.82281 5.04857 5.04855C3.82283 6.27429 3.09549 7.91123 3.00737 9.64245C2.91925 11.3737 3.47662 13.076 4.57156 14.4199C5.6665 15.7637 7.22113 16.6535 8.93445 16.917C10.6478 17.1804 12.3979 16.7988 13.846 15.846L19 21L21 19ZM5 9.99998C5 7.24298 7.243 4.99998 10 4.99998C12.757 4.99998 15 7.24298 15 9.99998C15 12.757 12.757 15 10 15C7.243 15 5 12.757 5 9.99998Z" fill="white"/>
  </symbol>
  <symbol viewBox="0 0 24 24" id="account">
    <path d="M12 4C13.0609 4 14.0783 4.42143 14.8284 5.17157C15.5786 5.92172 16 6.93913 16 8C16 9.06087 15.5786 10.0783 14.8284 10.8284C14.0783 11.5786 13.0609 12 12 12C10.9391 12 9.92172 11.5786 9.17157 10.8284C8.42143 10.0783 8 9.06087 8 8C8 6.93913 8.42143 5.92172 9.17157 5.17157C9.92172 4.42143 10.9391 4 12 4ZM12 14C16.42 14 20 15.79 20 18V20H4V18C4 15.79 7.58 14 12 14Z" fill="white"/>
  </symbol>
  <symbol viewBox="0 0 18 18" id="like">
    <path d="M8.97342 4.59641C6.21857 0.341121 0.642853 2.65926 0.642853 7.29469C0.642853 10.7755 8.28685 16.2205 8.97342 16.9285C9.66471 16.2205 16.9286 10.7755 16.9286 7.29469C16.9286 2.69441 11.7334 0.341121 8.97342 4.59641Z" fill="white"/>
  </symbol>
  <symbol viewBox="0 0 512 512" id="basket">
    <path d="M473.119,181.538h-18.217L373.335,27.696c-3.881-7.32-12.961-10.105-20.281-6.228c-7.32,3.881-10.108,12.961-6.227,20.281    l74.116,139.787H93.233L167.349,41.75c3.881-7.32,1.093-16.4-6.227-20.281c-7.319-3.881-16.4-1.093-20.281,6.228L59.274,181.538    H38.881C17.442,181.538,0,198.979,0,220.419C0,241.858,17.442,259.3,38.881,259.3h1.079c0.033,0.214,0.058,0.429,0.096,0.643    L71.34,435.358c5.883,32.984,34.47,56.924,67.974,56.924H374.86c33.504,0,62.092-23.94,67.974-56.924l31.284-175.414    c0.04-0.223,0.067-0.447,0.101-0.67c20.931-0.588,37.78-17.785,37.78-38.854C512,198.979,494.558,181.538,473.119,181.538z     M191.869,441.258c-0.843,0.142-1.682,0.21-2.509,0.21c-7.19,0-13.541-5.185-14.774-12.512l-22.124-131.351    c-1.376-8.17,4.131-15.909,12.301-17.285c8.162-1.374,15.909,4.131,17.285,12.302l22.124,131.351    C205.546,432.143,200.039,439.882,191.869,441.258z M270.353,426.465c0,8.285-6.717,15.001-15.001,15.001    c-8.285,0-15.001-6.717-15.001-15.001V295.113c0-8.285,6.717-15.001,15.001-15.001c8.285,0,15.001,6.717,15.001,15.001V426.465z     M357.198,297.605l-22.124,131.351c-1.234,7.327-7.585,12.512-14.774,12.512c-0.828,0-1.666-0.068-2.509-0.21    c-8.17-1.376-13.677-9.115-12.301-17.285l22.124-131.351c1.376-8.171,9.124-13.669,17.285-12.302    C353.066,281.696,358.574,289.435,357.198,297.605z" fill="white"/>
  </symbol>
  <symbol viewBox="0 0 80 80" id="play-btn">
	<path d="M40 5C20.6719 5 5 20.6719 5 40C5 59.3281 20.6719 75 40 75C59.3281 75 75 59.3281 75 40C75 20.6719 59.3281 5 40 5ZM51.2578 40.5391L34.1953 52.9531C34.1018 53.0203 33.9915 53.0605 33.8766 53.0691C33.7618 53.0777 33.6468 53.0545 33.5442 53.0021C33.4417 52.9496 33.3556 52.8699 33.2954 52.7716C33.2352 52.6734 33.2033 52.5605 33.2031 52.4453V27.6328C33.2027 27.5174 33.2343 27.4041 33.2944 27.3056C33.3544 27.207 33.4406 27.127 33.5434 27.0744C33.6461 27.0218 33.7614 26.9987 33.8765 27.0076C33.9916 27.0166 34.1019 27.0572 34.1953 27.125L51.2578 39.5312C51.3384 39.5883 51.4042 39.6638 51.4496 39.7515C51.4949 39.8391 51.5186 39.9364 51.5186 40.0352C51.5186 40.1339 51.4949 40.2312 51.4496 40.3189C51.4042 40.4065 51.3384 40.4821 51.2578 40.5391Z" fill="white"/>
  </symbol>
  <symbol viewBox="0 0 20 20" id="phone">
	<path d="M17.256 12.253C17.16 11.586 16.645 11.066 15.982 10.911C13.405 10.307 12.759 8.823 12.65 7.177C12.193 7.092 11.38 7 10 7C8.62 7 7.807 7.092 7.35 7.177C7.241 8.823 6.595 10.307 4.018 10.911C3.355 11.067 2.84 11.586 2.744 12.253L2.247 15.695C2.072 16.907 2.962 18 4.2 18H15.8C17.037 18 17.928 16.907 17.753 15.695L17.256 12.253ZM10 15.492C8.605 15.492 7.474 14.372 7.474 12.992C7.474 11.612 8.605 10.492 10 10.492C11.395 10.492 12.526 11.612 12.526 12.992C12.526 14.372 11.394 15.492 10 15.492ZM19.95 6C19.926 4.5 16.108 2.001 10 2C3.891 2.001 0.0729981 4.5 0.0499981 6C0.0269981 7.5 0.0709982 9.452 2.585 9.127C5.526 8.746 5.345 7.719 5.345 6.251C5.345 5.227 7.737 4.98 10 4.98C12.263 4.98 14.654 5.227 14.655 6.251C14.655 7.719 14.474 8.746 17.415 9.127C19.928 9.452 19.973 7.5 19.95 6Z"/>
  </symbol>
  <symbol viewBox="0 0 20 20" id="mail">
	<path d="M1.574 5.286L9.074 9.315C9.326 9.45 9.652 9.514 9.98 9.514C10.308 9.514 10.634 9.45 10.886 9.315L18.386 5.286C18.875 5.023 19.337 4 18.44 4H1.521C0.624002 4 1.086 5.023 1.574 5.286ZM18.613 7.489L10.886 11.516C10.546 11.694 10.308 11.715 9.98 11.715C9.652 11.715 9.414 11.694 9.074 11.516C8.734 11.338 1.941 7.777 1.386 7.488C0.996002 7.284 1 7.523 1 7.707V15C1 15.42 1.566 16 2 16H18C18.434 16 19 15.42 19 15V7.708C19 7.524 19.004 7.285 18.613 7.489Z"/>
  </symbol>
  <symbol viewBox="0 0 26 26" id="youtube">
	<path d="M23.8956 7.52385C23.7662 7.04288 23.5127 6.60435 23.1605 6.25215C22.8083 5.89995 22.3697 5.64643 21.8888 5.51697C20.1175 5.0376 13 5.0376 13 5.0376C13 5.0376 5.8825 5.0376 4.11125 5.51697C3.63029 5.64643 3.19176 5.89995 2.83956 6.25215C2.48736 6.60435 2.23384 7.04288 2.10438 7.52385C1.77365 9.33025 1.61315 11.1637 1.625 13.0001C1.61315 14.8365 1.77365 16.6699 2.10438 18.4763C2.23384 18.9573 2.48736 19.3958 2.83956 19.748C3.19176 20.1002 3.63029 20.3538 4.11125 20.4832C5.8825 20.9626 13 20.9626 13 20.9626C13 20.9626 20.1175 20.9626 21.8888 20.4832C22.3697 20.3538 22.8083 20.1002 23.1605 19.748C23.5127 19.3958 23.7662 18.9573 23.8956 18.4763C24.2264 16.6699 24.3869 14.8365 24.375 13.0001C24.3869 11.1637 24.2264 9.33025 23.8956 7.52385ZM10.725 16.4126V9.5876L16.6319 13.0001L10.725 16.4126Z"/>
  </symbol>
  <symbol viewBox="0 0 24 24" id="telegram">
	<path d="M20.665 3.71706L2.935 10.5541C1.725 11.0401 1.732 11.7151 2.713 12.0161L7.265 13.4361L17.797 6.79106C18.295 6.48806 18.75 6.65106 18.376 6.98306L9.843 14.6841H9.841L9.843 14.6851L9.529 19.3771C9.989 19.3771 10.192 19.1661 10.45 18.9171L12.661 16.7671L17.26 20.1641C18.108 20.6311 18.717 20.3911 18.928 19.3791L21.947 5.15106C22.256 3.91206 21.474 3.35106 20.665 3.71706Z"/>
  </symbol>
  <symbol viewBox="0 0 26 26" id="facebook">
	<path d="M14.5134 22.7467V13.8677H17.5088L17.9541 10.3913H14.5134V8.17694C14.5134 7.17377 14.7929 6.48694 16.2327 6.48694H18.057V3.38752C17.1694 3.2924 16.2771 3.24646 15.3844 3.24994C12.7367 3.24994 10.9189 4.86627 10.9189 7.83352V10.3848H7.94299V13.8612H10.9254V22.7467H14.5134Z"/>
  </symbol>
  <symbol viewBox="0 0 24 24" id="vkontakte">
	<path d="M21.3624 14.7577C21.3624 14.7577 23.3028 16.6741 23.7828 17.5609C23.7922 17.5736 23.7994 17.5878 23.8044 17.6029C24 17.9305 24.048 18.1873 23.952 18.3769C23.79 18.6901 23.2416 18.8473 23.0556 18.8605H19.626C19.3872 18.8605 18.8904 18.7981 18.2856 18.3805C17.8236 18.0577 17.364 17.5261 16.9188 17.0065C16.254 16.2349 15.6792 15.5653 15.0972 15.5653C15.0237 15.5651 14.9507 15.5773 14.8812 15.6013C14.4408 15.7405 13.8816 16.3681 13.8816 18.0397C13.8816 18.5629 13.4688 18.8605 13.1796 18.8605H11.6088C11.0736 18.8605 8.28722 18.6733 5.81642 16.0681C2.78882 12.8785 0.0696241 6.48005 0.0432241 6.42365C-0.125976 6.00965 0.229224 5.78405 0.613224 5.78405H4.07642C4.54082 5.78405 4.69202 6.06485 4.79762 6.31685C4.92002 6.60605 5.37362 7.76285 6.11762 9.06245C7.32242 11.1768 8.06282 12.0373 8.65442 12.0373C8.76557 12.0376 8.87484 12.0086 8.97122 11.9533C9.74402 11.5285 9.60002 8.76845 9.56402 8.19965C9.56402 8.08925 9.56282 6.96725 9.16682 6.42485C8.88362 6.03605 8.40122 5.88485 8.10962 5.82965C8.18762 5.71685 8.35322 5.54405 8.56562 5.44205C9.09482 5.17805 10.0512 5.13965 11.0004 5.13965H11.5272C12.5568 5.15405 12.8232 5.22005 13.1976 5.31485C13.9512 5.49485 13.9656 5.98325 13.8996 7.64645C13.8804 8.12165 13.86 8.65685 13.86 9.28685C13.86 9.42125 13.854 9.57125 13.854 9.72365C13.8312 10.5768 13.8012 11.5381 14.4036 11.9329C14.4818 11.9815 14.572 12.0073 14.664 12.0072C14.8728 12.0072 15.498 12.0072 17.1936 9.09725C17.9376 7.81205 18.5136 6.29645 18.5532 6.18245C18.5868 6.11885 18.6876 5.94005 18.81 5.86805C18.8971 5.82172 18.9946 5.79858 19.0932 5.80085H23.1672C23.6112 5.80085 23.9124 5.86805 23.9712 6.03605C24.0696 6.30845 23.952 7.14005 22.092 9.65525C21.7788 10.074 21.504 10.4365 21.2628 10.7533C19.5768 12.9661 19.5768 13.0777 21.3624 14.7577Z"/>
  </symbol>
  <symbol viewBox="0 0 16 16" id="etsy">
	<path d="M5.70932 1.63C5.70932 1.41333 5.73132 1.28333 6.10265 1.28333H11.0793C11.946 1.28333 12.426 2.02333 12.7727 3.412L13.0527 4.52267H13.8993C14.0527 1.37067 14.186 0 14.186 0C14.186 0 12.0553 0.24 10.7927 0.24H4.42665L1.01732 0.130667V1.044L2.16732 1.26133C2.97399 1.42133 3.16732 1.592 3.23399 2.332C3.23399 2.332 3.30732 4.512 3.30732 8.092C3.30732 11.682 3.24732 13.832 3.24732 13.832C3.24732 14.4807 2.98732 14.7207 2.18732 14.8807L1.03932 15.1007V16L4.45932 15.89H10.1593C11.4493 15.89 14.4193 16 14.4193 16C14.4893 15.22 14.9193 11.68 14.9893 11.2907H14.1893L13.3333 13.2307C12.6633 14.7507 11.6827 14.8607 10.5933 14.8607H7.32265C6.23599 14.8607 5.71265 14.434 5.71265 13.494V8.53333C5.71265 8.53333 8.12599 8.53333 8.90598 8.59733C9.51398 8.64 9.88132 8.814 10.0793 9.66267L10.3393 10.7927H11.2793L11.2193 7.94067L11.3473 5.07067H10.42L10.12 6.33067C9.93132 7.16 9.79998 7.31067 8.95065 7.39733C7.83998 7.51067 5.74065 7.49067 5.74065 7.49067V1.63333H5.70732L5.70932 1.63Z"/>
  </symbol>
</svg>
