<?xml version="1.0" standalone="no"?>
<!DOCTYPE svg PUBLIC "-//W3C//DTD SVG 20010904//EN"
 "http://www.w3.org/TR/2001/REC-SVG-20010904/DTD/svg10.dtd">
<svg version="1.0" xmlns="http://www.w3.org/2000/svg"
 width="109.000000pt" height="109.000000pt" viewBox="0 0 109.000000 109.000000"
 preserveAspectRatio="xMidYMid meet">
<metadata>
Created by potrace 1.11, written by Peter Selinger 2001-2013
</metadata>
<g transform="translate(0.000000,109.000000) scale(0.100000,-0.100000)"
fill="#000000" stroke="none">
<path d="M0 950 c0 -27 5 -43 15 -46 8 -4 15 -12 15 -20 0 -7 8 -18 18 -23 9
-6 13 -11 9 -11 -5 0 -1 -7 7 -16 9 -8 13 -20 10 -26 -4 -7 -2 -8 4 -4 7 4 12
1 12 -8 0 -9 5 -16 10 -16 6 0 10 -9 10 -20 0 -12 7 -20 16 -20 10 0 14 -5 10
-15 -3 -9 1 -18 9 -21 8 -4 12 -10 9 -15 -3 -5 3 -9 13 -10 11 0 13 -3 5 -6
-9 -4 -7 -10 7 -22 12 -10 18 -21 14 -25 -3 -3 -1 -6 5 -6 7 0 12 -6 12 -13 0
-7 8 -22 18 -33 11 -11 18 -27 16 -37 -1 -9 3 -20 8 -24 7 -4 8 -1 3 7 -5 9
-4 11 3 6 7 -4 12 -14 12 -22 0 -8 9 -24 20 -36 11 -12 20 -28 20 -35 0 -7 5
-13 12 -13 6 0 9 -3 6 -6 -4 -3 2 -14 13 -25 11 -11 17 -24 14 -29 -4 -6 1
-10 9 -10 10 0 13 -6 9 -17 -5 -12 -3 -14 7 -8 9 6 12 4 8 -6 -6 -16 16 -42
27 -31 4 4 6 2 4 -3 -3 -13 12 -47 29 -64 7 -7 11 -20 8 -28 -3 -8 -2 -12 2
-10 4 2 15 -4 25 -15 9 -10 14 -18 11 -18 -4 0 0 -8 7 -17 12 -14 12 -16 0 -8
-10 5 -12 4 -7 -3 10 -17 75 -15 92 3 9 8 13 15 9 15 -3 0 2 11 11 25 9 14 20
22 25 19 5 -3 6 2 3 10 -4 9 1 18 10 22 9 3 14 10 11 14 -3 5 -1 11 5 15 6 4
8 10 5 15 -3 4 1 10 8 13 8 3 22 21 31 41 9 20 21 34 26 31 6 -3 7 0 5 7 -3 8
3 23 13 34 10 11 22 32 26 47 3 15 11 25 15 22 5 -3 14 9 20 26 6 17 15 28 21
24 6 -4 9 -3 8 2 -7 26 32 88 48 75 5 -4 3 0 -3 8 -11 15 -4 43 11 41 3 -1 5
0 4 2 -5 7 25 47 32 42 6 -4 7 1 3 11 -5 14 -3 16 12 11 14 -6 16 -5 6 7 -9
11 -8 15 5 20 9 3 14 13 10 21 -3 8 0 14 7 12 7 -1 11 4 10 11 -2 6 2 12 8 12
6 0 9 6 6 14 -4 10 0 13 14 11 16 -3 18 -1 11 8 -8 9 -4 19 14 36 13 13 22 26
19 30 -2 4 5 15 16 24 12 11 19 29 19 52 l0 35 -545 0 -545 0 0 -40z m230 -34
c49 -1 86 2 84 6 -3 5 5 4 18 -1 36 -14 40 -14 49 1 5 8 9 9 9 2 0 -8 13 -10
36 -7 23 3 34 1 30 -5 -3 -6 -1 -12 4 -14 6 -2 2 -13 -9 -25 -11 -11 -17 -24
-14 -27 4 -3 -2 -6 -12 -6 -15 0 -16 -2 -4 -17 7 -10 10 -15 5 -11 -11 9 -36
-16 -36 -36 0 -8 -5 -18 -12 -22 -7 -5 -8 -3 -3 6 5 9 4 11 -4 6 -6 -4 -9 -11
-6 -16 3 -5 -2 -16 -11 -24 -8 -9 -12 -16 -7 -16 4 0 4 -4 -2 -8 -17 -12 -51
-56 -38 -48 8 4 11 2 7 -7 -7 -20 -36 -17 -42 5 -2 10 -8 15 -13 12 -5 -3 -9
4 -9 15 0 12 -4 21 -9 21 -10 0 -27 39 -23 53 1 4 -5 7 -13 7 -8 0 -15 7 -15
16 0 8 -4 13 -9 10 -5 -4 -8 2 -7 11 2 10 -5 24 -16 31 -10 7 -16 18 -13 23 4
5 1 9 -6 9 -7 0 -9 3 -6 7 4 3 -1 12 -11 20 -12 10 -14 16 -4 19 6 3 9 11 6
16 -5 7 -2 8 6 3 7 -4 52 -8 100 -9z m651 -9 c2 0 15 5 28 12 13 7 21 8 17 3
-4 -7 4 -10 21 -9 23 2 27 -2 25 -18 -2 -11 -10 -25 -17 -31 -11 -8 -12 -13
-2 -24 9 -10 9 -11 -1 -6 -18 10 -42 -15 -42 -45 0 -5 -5 -7 -12 -3 -6 4 -8 3
-4 -4 3 -6 0 -17 -8 -25 -8 -8 -12 -17 -9 -21 4 -3 1 -6 -5 -6 -7 0 -11 -3 -9
-8 2 -8 -11 -25 -51 -68 -25 -28 -43 -24 -37 6 2 13 -2 20 -11 20 -13 0 -18
12 -15 33 0 4 -4 7 -9 7 -6 0 -10 6 -10 13 0 7 -10 18 -21 26 -16 9 -18 15
-10 20 8 6 4 13 -13 25 -14 9 -26 25 -26 36 0 11 -7 20 -16 20 -8 0 -12 5 -9
10 3 6 2 10 -3 10 -6 0 -8 8 -5 19 4 17 15 18 119 17 70 -1 114 3 114 9 0 6 4
4 9 -3 4 -8 10 -14 12 -15z m-311 -58 c0 -5 16 -32 35 -60 19 -28 32 -56 28
-62 -3 -6 -1 -7 5 -3 7 4 12 2 12 -5 0 -6 8 -18 18 -26 11 -10 12 -12 2 -8 -8
4 -5 -2 7 -13 12 -11 19 -22 16 -26 -4 -3 -2 -6 4 -6 6 0 14 -11 17 -25 4 -16
11 -23 18 -19 7 5 9 0 6 -14 -4 -12 -1 -22 4 -22 6 0 5 -6 -2 -15 -7 -8 -9
-15 -5 -15 4 0 -9 -20 -29 -45 -21 -25 -34 -49 -31 -55 3 -5 1 -10 -4 -10 -6
0 -11 -7 -11 -15 0 -9 -7 -18 -15 -21 -8 -4 -12 -10 -9 -15 3 -5 -2 -9 -12 -9
-14 0 -14 -3 -4 -16 11 -12 11 -15 -1 -12 -8 2 -13 -3 -11 -9 1 -7 -2 -13 -7
-13 -5 0 -13 -9 -16 -20 -3 -11 -14 -20 -23 -20 -14 0 -14 -2 -3 -9 11 -7 9
-11 -8 -20 -17 -10 -21 -9 -21 4 0 9 -11 28 -24 42 -13 14 -32 45 -42 69 -10
24 -24 44 -32 44 -7 0 -10 5 -7 10 3 6 2 10 -3 10 -5 0 -12 14 -16 31 -4 20
-10 28 -18 23 -8 -5 -9 -2 -5 10 4 9 3 14 -2 11 -5 -3 -12 4 -16 15 -4 11 -10
18 -15 15 -16 -10 2 59 18 73 13 10 13 12 2 7 -12 -5 -12 -4 1 7 8 7 18 21 22
31 4 10 11 15 17 12 5 -3 7 0 4 8 -3 8 8 29 23 48 15 18 21 29 13 24 -13 -8
-13 -6 -1 8 7 9 18 14 25 10 6 -3 8 -3 4 2 -4 4 -3 14 3 22 6 7 8 13 3 13 -4
0 1 7 12 15 15 11 16 15 4 15 -8 1 -5 5 9 11 14 6 21 15 18 23 -3 8 -1 17 6
19 14 5 37 -11 37 -24z"/>
</g>
</svg>
