<?xml version="1.0" standalone="no"?>
<!DOCTYPE svg PUBLIC "-//W3C//DTD SVG 20010904//EN"
 "http://www.w3.org/TR/2001/REC-SVG-20010904/DTD/svg10.dtd">
<svg version="1.0" xmlns="http://www.w3.org/2000/svg"
 width="512.000000pt" height="512.000000pt" viewBox="0 0 512.000000 512.000000"
 preserveAspectRatio="xMidYMid meet">
<metadata>
Created by potrace 1.11, written by Peter Selinger 2001-2013
</metadata>
<g transform="translate(0.000000,512.000000) scale(0.100000,-0.100000)"
fill="#000000" stroke="none">
<path d="M998 4882 c-15 -16 -173 -251 -619 -917 -107 -159 -198 -294 -202
-300 -4 -5 -23 -32 -42 -60 -116 -171 -119 -240 -14 -385 41 -57 291 -409 319
-450 6 -8 33 -46 60 -85 28 -38 85 -119 127 -180 42 -60 91 -129 107 -151 38
-52 43 -58 160 -224 52 -74 102 -144 110 -155 11 -16 152 -214 216 -305 6 -8
110 -154 231 -325 122 -170 228 -321 237 -335 16 -24 193 -273 422 -595 59
-82 129 -181 155 -220 58 -84 86 -110 142 -131 95 -37 191 1 262 102 54 78
419 592 491 693 19 27 43 59 52 72 9 13 120 170 247 349 127 179 235 332 241
340 6 8 71 101 145 205 74 105 138 195 143 200 4 6 31 44 60 85 28 41 74 107
101 145 28 39 56 78 63 88 7 11 51 72 98 137 47 65 92 129 100 141 8 12 33 47
55 78 229 319 424 602 434 630 26 80 12 131 -86 301 -11 19 -35 62 -53 95 -18
33 -42 76 -53 95 -23 41 -342 613 -381 683 -155 280 -164 294 -218 353 l-40
44 -1528 0 c-1438 0 -1528 -1 -1542 -18z m1065 -493 c2 -6 -401 -619 -408
-619 -4 0 -205 603 -205 616 0 10 608 13 613 3z m1606 -2 c5 -9 -320 -675
-329 -676 -6 -1 -436 647 -445 669 -5 13 41 15 382 15 214 0 390 -4 392 -8z
m-1179 -155 c0 -5 104 -165 230 -356 127 -191 230 -351 230 -355 0 -5 -214 -9
-475 -9 -261 -1 -475 2 -475 5 0 3 101 157 224 343 124 186 230 348 236 359
11 21 30 29 30 13z m-1306 -395 c54 -166 101 -308 104 -315 3 -10 -58 -12
-307 -11 -171 1 -311 4 -311 7 0 6 60 102 75 119 5 6 82 122 170 257 88 135
162 245 165 246 3 0 50 -136 104 -303z m3005 -3 c83 -168 151 -309 151 -313 0
-5 -140 -8 -310 -8 -171 0 -309 3 -308 8 12 33 304 619 309 619 3 0 74 -138
158 -306z m-2759 -701 c0 -2 12 -42 26 -90 14 -49 27 -95 29 -103 2 -8 40
-143 85 -300 45 -157 83 -289 84 -295 2 -5 8 -30 15 -55 7 -25 15 -52 17 -60
2 -8 24 -87 50 -175 42 -147 61 -211 99 -350 8 -27 32 -112 53 -188 22 -76 36
-135 32 -130 -8 8 -379 530 -479 674 -25 36 -120 170 -211 297 -91 128 -231
326 -312 440 -81 114 -164 232 -186 262 -21 30 -41 60 -44 65 -4 7 122 10 368
10 206 0 374 -1 374 -2z m1644 -3 c2 -3 -11 -59 -30 -125 -20 -66 -42 -145
-50 -175 -8 -30 -28 -100 -44 -155 -16 -55 -58 -203 -94 -330 -36 -126 -121
-430 -191 -675 -69 -245 -138 -488 -152 -540 -15 -52 -29 -98 -33 -102 -4 -6
-108 336 -134 443 -6 23 -133 472 -153 539 -9 30 -17 60 -19 65 -1 6 -32 116
-69 245 -36 129 -68 242 -70 250 -12 49 -138 489 -145 508 -6 13 -10 31 -10
40 0 16 41 17 594 17 327 0 597 -2 600 -5z m1117 -115 c-46 -66 -172 -244
-279 -395 -108 -151 -207 -291 -221 -311 -14 -20 -73 -103 -131 -184 -58 -82
-118 -167 -135 -190 -16 -24 -66 -94 -109 -156 -44 -63 -84 -118 -88 -124 -5
-5 -43 -59 -86 -120 -42 -60 -82 -116 -89 -123 -7 -7 -13 -18 -13 -24 0 -6 -2
-9 -5 -6 -5 4 172 641 275 993 16 55 70 246 121 425 50 179 95 327 99 330 5 3
174 5 377 5 l369 0 -85 -120z"/>
</g>
</svg>
